<?xml version="1.0" standalone="no"?>
<!DOCTYPE svg PUBLIC "-//W3C//DTD SVG 20010904//EN"
 "http://www.w3.org/TR/2001/REC-SVG-20010904/DTD/svg10.dtd">
<svg version="1.0" xmlns="http://www.w3.org/2000/svg"
 width="512.000000pt" height="512.000000pt" viewBox="0 0 512.000000 512.000000"
 preserveAspectRatio="xMidYMid meet">
<metadata>
Created by potrace 1.14, written by Peter Selinger 2001-2017
</metadata>
<g transform="translate(0.000000,512.000000) scale(0.100000,-0.100000)"
fill="#000000" stroke="none">
<path d="M2320 5110 c-502 -52 -982 -248 -1365 -557 -288 -232 -517 -518 -684
-854 -276 -554 -342 -1167 -191 -1769 86 -344 263 -697 487 -975 232 -288 518
-517 854 -684 391 -195 793 -283 1224 -268 380 14 715 99 1054 268 261 130
467 277 670 480 203 203 350 409 480 670 124 249 204 502 247 784 26 169 26
541 0 710 -71 465 -260 899 -543 1250 -232 288 -518 517 -854 684 -246 123
-506 205 -779 246 -124 19 -478 28 -600 15z m489 -1590 c41 -11 106 -36 145
-54 70 -33 196 -119 196 -133 0 -5 -31 -41 -68 -82 l-68 -74 -54 42 c-116 87
-284 136 -440 128 -228 -13 -352 -113 -352 -283 -1 -71 18 -117 69 -167 54
-54 149 -99 376 -176 279 -95 363 -137 453 -226 39 -38 81 -89 93 -112 72
-142 67 -369 -11 -515 -64 -119 -220 -234 -373 -273 -220 -57 -512 -33 -708
58 -80 37 -180 101 -210 135 -23 25 -21 28 59 116 l60 67 50 -39 c69 -55 166
-106 254 -134 65 -20 95 -23 225 -23 133 1 157 3 210 24 154 61 232 155 242
295 11 149 -48 250 -190 320 -40 19 -155 63 -257 96 -456 149 -600 288 -588
568 3 83 8 107 36 165 64 138 220 252 397 291 104 23 354 15 454 -14z m1680 0
c41 -11 106 -36 145 -54 70 -33 196 -119 196 -133 0 -5 -31 -41 -68 -82 l-68
-74 -54 42 c-116 87 -284 136 -440 128 -228 -13 -352 -113 -352 -283 -1 -71
18 -117 69 -167 54 -54 149 -99 376 -176 279 -95 363 -137 453 -226 39 -38 81
-89 93 -112 72 -142 67 -369 -11 -515 -64 -119 -220 -234 -373 -273 -220 -57
-512 -33 -708 58 -80 37 -180 101 -210 135 -23 25 -21 28 59 116 l60 67 50
-39 c69 -55 166 -106 254 -134 65 -20 95 -23 225 -23 133 1 157 3 210 24 154
61 232 155 242 295 11 149 -48 250 -190 320 -40 19 -155 63 -257 96 -456 149
-600 288 -588 568 3 83 8 107 36 165 64 138 220 252 397 291 104 23 354 15
454 -14z m-3071 -717 c-3 -700 -4 -720 -25 -794 -34 -120 -77 -195 -157 -274
-123 -122 -252 -169 -466 -168 -143 0 -255 22 -367 73 -80 37 -163 88 -163
102 0 5 22 42 50 82 l50 72 94 -47 c124 -60 231 -84 359 -77 183 10 290 91
355 269 l26 74 4 603 3 602 -285 0 -286 0 0 100 0 100 405 0 406 0 -3 -717z"/>
</g>
</svg>
